<svg width="100" height="100" viewBox="0 0 100 100" fill="none" xmlns="http://www.w3.org/2000/svg">
<path d="M79.1667 37.5C79.1667 43.5417 77.375 49.0834 74.2917 53.7084C69.7917 60.3751 62.6667 65.0834 54.375 66.2917C52.9584 66.5417 51.5 66.6667 50 66.6667C48.5 66.6667 47.0417 66.5417 45.625 66.2917C37.3334 65.0834 30.2084 60.3751 25.7084 53.7084C22.625 49.0834 20.8334 43.5417 20.8334 37.5C20.8334 21.375 33.875 8.33337 50 8.33337C66.125 8.33337 79.1667 21.375 79.1667 37.5Z" stroke="#68C28C" stroke-width="5.04114" stroke-linecap="round" stroke-linejoin="round"/>
<path d="M88.5417 76.9584L81.6667 78.5833C80.125 78.9583 78.9167 80.125 78.5833 81.6667L77.125 87.7917C76.3333 91.1251 72.0833 92.1251 69.875 89.5001L50 66.6667L30.125 89.5417C27.9167 92.1666 23.6667 91.1666 22.875 87.8333L21.4167 81.7083C21.0417 80.1666 19.8333 78.9583 18.3333 78.625L11.4583 77.0001C8.29167 76.2501 7.16667 72.2916 9.45834 70L25.7083 53.75C30.2083 60.4167 37.3333 65.1251 45.625 66.3334C47.0417 66.5834 48.5 66.7084 50 66.7084C51.5 66.7084 52.9583 66.5834 54.375 66.3334C62.6667 65.1251 69.7917 60.4167 74.2917 53.75L90.5417 70C92.8333 72.25 91.7083 76.2084 88.5417 76.9584Z" stroke="#68C28C" stroke-width="5.04114" stroke-linecap="round" stroke-linejoin="round"/>
<path d="M52.4167 24.9166L54.875 29.8333C55.2084 30.4999 56.0834 31.1666 56.875 31.2916L61.3334 32.0416C64.1667 32.4999 64.8334 34.5833 62.7917 36.6249L59.3334 40.0832C58.75 40.6666 58.4167 41.7916 58.625 42.625L59.6251 46.9166C60.4167 50.2916 58.6251 51.6249 55.6251 49.8332L51.4584 47.3749C50.7084 46.9166 49.4584 46.9166 48.7084 47.3749L44.5417 49.8332C41.5417 51.5832 39.75 50.2916 40.5417 46.9166L41.5417 42.625C41.7084 41.8333 41.4167 40.6666 40.8334 40.0832L37.3751 36.6249C35.3334 34.5833 36 32.5416 38.8334 32.0416L43.2917 31.2916C44.0417 31.1666 44.9167 30.4999 45.25 29.8333L47.7084 24.9166C48.9167 22.25 51.0834 22.25 52.4167 24.9166Z" stroke="#68C28C" stroke-width="5.04114" stroke-linecap="round" stroke-linejoin="round"/>
</svg>
