<svg width="100" height="100" viewBox="0 0 100 100" fill="none" xmlns="http://www.w3.org/2000/svg">
<g clip-path="url(#clip0_100_84343)">
<path d="M55.6439 1.83862C60.445 3.34116 58.4031 8.368 58.8371 12.0955C59.0177 13.6482 61.5186 13.7987 62.838 14.3029C63.9969 14.7444 65.1733 15.221 66.3046 15.7276C67.6993 16.3522 69.1441 17.8999 70.599 16.889C73.4811 14.8848 75.538 9.46417 79.9704 12.0303C81.1694 12.7251 87.2723 18.8255 87.9672 20.0271C90.5333 24.4619 85.1126 26.5188 83.1084 29.3984C82.0975 30.8533 83.6477 32.2982 84.2698 33.6928C84.7765 34.8241 85.2531 36.0006 85.6945 37.1594C86.136 38.3183 86.3894 40.9371 87.7289 41.1453C91.4438 41.7222 96.6262 39.4245 98.1588 44.3535V47.1755C97.6045 48.0334 96.6763 48.52 95.8034 47.7449C94.7524 46.8118 96.0091 44.5191 94.5969 44.0626C93.0567 43.5634 89.3242 44.2106 87.3927 43.9296C83.7656 43.4054 83.7229 39.7857 82.6368 37.0215C81.7614 34.7915 79.6794 32.0875 79.9127 29.7747C80.1535 27.3867 84.2046 24.793 85.6469 22.9067C85.7823 22.5982 85.8074 22.2069 85.7422 21.8808C85.5491 20.8874 79.421 15.7778 78.513 14.4333C78.0765 14.1474 77.4218 14.1474 76.9879 14.4333C75.0614 15.971 72.5957 19.9242 70.0446 20.0948C67.8347 20.2428 65.1256 18.206 62.9784 17.3631C60.016 16.1992 56.424 16.2419 56.0226 12.2786C55.8245 10.3296 56.3788 7.28687 55.98 5.54855C55.8094 4.79854 55.2776 4.71325 54.6179 4.65305C52.3177 4.44234 47.6797 4.44234 45.382 4.65305C44.4614 4.73834 44.0902 4.90891 43.9773 5.88217C43.6612 8.54358 44.7449 12.5094 43.0391 14.7268C41.9028 16.2068 38.7999 16.6658 37.0215 17.3631C34.8743 18.206 32.1677 20.2428 29.9553 20.0948C27.4043 19.9242 24.9385 15.971 23.0121 14.4333C22.5756 14.1474 21.9209 14.1474 21.4869 14.4333L14.4333 21.4869L14.353 22.9067C15.7954 24.793 19.8439 27.3867 20.0873 29.7747C20.3306 32.1627 18.2386 34.794 17.3631 37.0215C16.2795 39.7807 16.2344 43.4054 12.6072 43.9296C10.6707 44.2106 6.94573 43.5609 5.40306 44.0626C4.76091 44.2708 4.70573 44.8076 4.65305 45.382C4.44235 47.6772 4.44235 52.3227 4.65305 54.6179C4.73834 55.5385 4.90891 55.9098 5.88217 56.0226C8.54359 56.3387 12.5094 55.2551 14.7268 56.9608C16.2068 58.0971 16.6658 61.2 17.3631 62.9784C18.206 65.1256 20.2428 67.8322 20.0948 70.0446C19.9242 72.5956 15.971 75.0614 14.4333 76.9879C14.1474 77.4243 14.1474 78.079 14.4333 78.513L21.4869 85.5666L22.9067 85.6469C24.793 84.2045 27.3867 80.156 29.7747 79.9127C32.0875 79.6794 34.794 81.7614 37.0215 82.6368C38.8376 83.3492 41.9906 83.7957 43.1194 85.381C44.7775 87.7038 43.5709 91.6194 43.9898 94.2933C44.1052 95.0258 44.499 95.2616 45.1964 95.3444C47.331 95.5927 52.4331 95.55 54.6154 95.3494C55.536 95.2641 55.9073 95.0935 56.0201 94.1203C56.3362 91.4588 55.2526 87.4931 56.9583 85.2756C58.0946 83.7957 61.1975 83.3366 62.9759 82.6393C65.1231 81.7965 67.8297 79.7597 70.0421 79.9076C72.5932 80.0782 75.0589 84.0315 76.9854 85.5691C77.4218 85.8551 78.0765 85.8551 78.5105 85.5691L85.5641 78.5155L85.6444 77.0957C84.202 75.2094 80.1535 72.6157 79.9102 70.2277C79.6769 67.915 81.7589 65.2084 82.6343 62.9809C83.7204 60.2167 83.7631 56.5971 87.3902 56.0728C89.3242 55.7944 93.0567 56.439 94.5944 55.9399C96.0091 55.4808 94.7524 53.1906 95.8009 52.2575C96.6738 51.4824 97.6019 51.9665 98.1563 52.8269V55.6489C96.6237 60.5804 91.4413 58.2802 87.7264 58.8571C86.3844 59.0653 86.1536 61.6389 85.692 62.843C85.1828 64.1774 84.6109 65.5144 84.0189 66.8138C83.427 68.1131 82.105 69.1642 83.1059 70.604C85.1101 73.4861 90.5308 75.543 87.9647 79.9754C87.2698 81.1744 81.1694 87.2773 79.9679 87.9722C75.533 90.5383 73.4761 85.1176 70.5965 83.1134C69.1416 82.1025 67.6968 83.6527 66.3021 84.2748C65.1708 84.7815 63.9944 85.2581 62.8355 85.6995C61.516 86.2037 59.0152 86.3542 58.8346 87.9069C58.4006 91.6344 60.4399 96.6613 55.6414 98.1638H44.3536C39.422 96.6312 41.7222 91.4488 41.1453 87.7339C40.9371 86.3944 38.3635 86.1561 37.1595 85.6995C35.9554 85.243 34.8241 84.7815 33.6928 84.2748C32.2982 83.6502 30.8533 82.1025 29.3984 83.1134C26.5163 85.1176 24.4594 90.5383 20.0271 87.9722C18.828 87.2773 12.7251 81.1769 12.0303 79.9754C9.46417 75.5405 14.8848 73.4836 16.889 70.604C17.1148 70.2804 17.2628 70.0847 17.2778 69.6583C17.3054 68.971 15.527 65.8506 15.1081 64.8597C14.2903 62.9283 13.8514 60.8011 12.8254 59.0528C8.97503 58.0745 3.444 60.7535 1.83862 55.6464V44.3586C3.37627 39.417 8.55864 41.7348 12.2686 41.1478C12.5219 41.1077 12.7326 41.0374 12.9308 40.8694C13.3346 40.5282 14.6917 36.131 15.1081 35.1452C15.5245 34.1594 17.3029 30.9712 17.2778 30.3466C17.2603 29.9202 17.1148 29.727 16.889 29.401C14.8848 26.5188 9.46668 24.4619 12.0303 20.0296C12.7251 18.8305 18.8255 12.7276 20.0271 12.0328C24.4619 9.46668 26.5188 14.8873 29.3984 16.8915C29.722 17.1173 29.9177 17.2653 30.3441 17.2803C31.0314 17.3079 34.1519 15.5295 35.1427 15.1106C36.1335 14.6917 40.6411 13.3121 40.9496 12.8279C41.5993 11.8095 40.8217 6.48418 41.2858 4.6982C41.6821 3.16808 43.0216 2.42308 44.3561 1.84113H55.6439V1.83862Z" fill="#68C28C"/>
<path d="M46.5785 23.7069C48.1237 23.7144 48.6956 25.4979 47.469 26.3031C46.8444 26.712 44.9731 26.8198 44.0902 27.0632C30.61 30.7656 22.8866 44.8502 27.8006 58.1874C33.4595 73.5539 52.9298 78.7438 65.4317 67.9702C79.9352 55.4733 74.3691 32.1652 56.0628 27.1033C54.7308 26.7346 51.8788 26.8499 51.8737 25.074C51.8687 23.4586 53.6923 23.7395 54.7484 23.9026C64.0395 25.3298 72.4928 33.0733 75.2596 41.958C82.1502 64.0822 59.3864 83.9964 38.4588 73.8674C20.0446 64.9551 18.3088 39.264 35.3459 27.9135C37.927 26.1927 43.4982 23.6944 46.581 23.7094L46.5785 23.7069Z" fill="#68C28C"/>
<path d="M59.7376 39.5148C64.4534 38.8425 67.3681 43.9772 64.5863 47.7474C59.9859 51.7081 55.8495 57.3019 51.2291 61.1046C49.1346 62.8304 46.7215 62.8153 44.5617 61.1774C42.56 59.6598 37.2247 54.2642 35.6067 52.26C31.3976 47.04 37.6411 41.0249 42.4597 44.6545C44.3209 46.0567 46.0041 48.4773 47.8377 49.9974L56.7726 41.0625C57.6431 40.3651 58.5912 39.6778 59.7401 39.5148H59.7376ZM60.1138 42.3267C59.7928 42.3794 59.4566 42.5299 59.2108 42.7481C55.832 45.698 52.7592 49.8243 49.3453 52.6362C48.5426 53.2985 48.0334 53.745 46.9974 53.0928C45.1462 51.9264 42.8786 48.5425 40.9722 47.0776C39.9714 46.3075 39.0232 46.0818 37.9546 46.892C36.5374 47.9631 36.891 49.3352 37.8618 50.5643C39.4019 52.5184 43.8995 56.9457 45.8561 58.5611C47.1328 59.6146 47.9456 60.0461 49.4381 58.9399L62.5796 45.7407C63.3672 43.9045 62.1833 41.9881 60.1113 42.3242L60.1138 42.3267Z" fill="#68C28C"/>
</g>
<defs>
<clipPath id="clip0_100_84343">
<rect width="100" height="100" fill="white"/>
</clipPath>
</defs>
</svg>
