<svg width="120" height="24" viewBox="0 0 120 24" fill="none" xmlns="http://www.w3.org/2000/svg">
<path d="M13.73 3.51014L15.49 7.03014C15.73 7.52014 16.37 7.99014 16.91 8.08014L20.1 8.61014C22.14 8.95014 22.62 10.4301 21.15 11.8901L18.67 14.3701C18.25 14.7901 18.02 15.6001 18.15 16.1801L18.86 19.2501C19.42 21.6801 18.13 22.6201 15.98 21.3501L12.99 19.5801C12.45 19.2601 11.56 19.2601 11.01 19.5801L8.02003 21.3501C5.88003 22.6201 4.58003 21.6701 5.14003 19.2501L5.85003 16.1801C5.98003 15.6001 5.75003 14.7901 5.33003 14.3701L2.85003 11.8901C1.39003 10.4301 1.86003 8.95014 3.90003 8.61014L7.09003 8.08014C7.62003 7.99014 8.26003 7.52014 8.50003 7.03014L10.26 3.51014C11.22 1.60014 12.78 1.60014 13.73 3.51014Z" fill="#68C28C"/>
<path d="M37.73 3.51014L39.49 7.03014C39.73 7.52014 40.37 7.99014 40.91 8.08014L44.1 8.61014C46.14 8.95014 46.62 10.4301 45.15 11.8901L42.67 14.3701C42.25 14.7901 42.02 15.6001 42.15 16.1801L42.86 19.2501C43.42 21.6801 42.13 22.6201 39.98 21.3501L36.99 19.5801C36.45 19.2601 35.56 19.2601 35.01 19.5801L32.02 21.3501C29.88 22.6201 28.58 21.6701 29.14 19.2501L29.85 16.1801C29.98 15.6001 29.75 14.7901 29.33 14.3701L26.85 11.8901C25.39 10.4301 25.86 8.95014 27.9 8.61014L31.09 8.08014C31.62 7.99014 32.26 7.52014 32.5 7.03014L34.26 3.51014C35.22 1.60014 36.78 1.60014 37.73 3.51014Z" fill="#68C28C"/>
<path d="M61.73 3.51014L63.49 7.03014C63.73 7.52014 64.37 7.99014 64.91 8.08014L68.1 8.61014C70.14 8.95014 70.62 10.4301 69.15 11.8901L66.67 14.3701C66.25 14.7901 66.02 15.6001 66.15 16.1801L66.86 19.2501C67.42 21.6801 66.13 22.6201 63.98 21.3501L60.99 19.5801C60.45 19.2601 59.56 19.2601 59.01 19.5801L56.02 21.3501C53.88 22.6201 52.58 21.6701 53.14 19.2501L53.85 16.1801C53.98 15.6001 53.75 14.7901 53.33 14.3701L50.85 11.8901C49.39 10.4301 49.86 8.95014 51.9 8.61014L55.09 8.08014C55.62 7.99014 56.26 7.52014 56.5 7.03014L58.26 3.51014C59.22 1.60014 60.78 1.60014 61.73 3.51014Z" fill="#68C28C"/>
<path d="M85.73 3.51014L87.49 7.03014C87.73 7.52014 88.37 7.99014 88.91 8.08014L92.1 8.61014C94.14 8.95014 94.62 10.4301 93.15 11.8901L90.67 14.3701C90.25 14.7901 90.02 15.6001 90.15 16.1801L90.86 19.2501C91.42 21.6801 90.13 22.6201 87.98 21.3501L84.99 19.5801C84.45 19.2601 83.56 19.2601 83.01 19.5801L80.02 21.3501C77.88 22.6201 76.58 21.6701 77.14 19.2501L77.85 16.1801C77.98 15.6001 77.75 14.7901 77.33 14.3701L74.85 11.8901C73.39 10.4301 73.86 8.95014 75.9 8.61014L79.09 8.08014C79.62 7.99014 80.26 7.52014 80.5 7.03014L82.26 3.51014C83.22 1.60014 84.78 1.60014 85.73 3.51014Z" fill="#68C28C"/>
<path d="M109.73 3.51014L111.49 7.03014C111.73 7.52014 112.37 7.99014 112.91 8.08014L116.1 8.61014C118.14 8.95014 118.62 10.4301 117.15 11.8901L114.67 14.3701C114.25 14.7901 114.02 15.6001 114.15 16.1801L114.86 19.2501C115.42 21.6801 114.13 22.6201 111.98 21.3501L108.99 19.5801C108.45 19.2601 107.56 19.2601 107.01 19.5801L104.02 21.3501C101.88 22.6201 100.58 21.6701 101.14 19.2501L101.85 16.1801C101.98 15.6001 101.75 14.7901 101.33 14.3701L98.85 11.8901C97.39 10.4301 97.86 8.95014 99.9 8.61014L103.09 8.08014C103.62 7.99014 104.26 7.52014 104.5 7.03014L106.26 3.51014C107.22 1.60014 108.78 1.60014 109.73 3.51014Z" fill="#68C28C"/>
</svg>
