<svg width="88" height="88" viewBox="0 0 88 88" fill="none" xmlns="http://www.w3.org/2000/svg">
<path d="M40.2264 60.2709C40.749 49.9538 45.7513 40.1802 56.6178 40.1802C67.4843 40.1802 72.4866 49.9538 73.0092 60.2709C73.0602 61.2783 72.2375 62.0967 71.2288 62.0967H42.0068C40.9981 62.0967 40.1754 61.2783 40.2264 60.2709Z" fill="#2A4157" fill-opacity="0.24"/>
<path d="M14.6569 60.2709C15.1796 49.9538 20.1818 40.1802 31.0483 40.1802C41.9148 40.1802 46.9171 49.9538 47.4397 60.2709C47.4907 61.2783 46.668 62.0967 45.6593 62.0967H16.4373C15.4286 62.0967 14.6059 61.2783 14.6569 60.2709Z" fill="#2A4157" fill-opacity="0.24"/>
<circle cx="56.6176" cy="27.3956" r="9.13189" fill="#2A4157" fill-opacity="0.24"/>
<circle cx="9.13189" cy="9.13189" r="9.13189" transform="matrix(-1 0 0 1 40.1804 18.2637)" fill="#2A4157" fill-opacity="0.24"/>
<path d="M25.6203 63.9239C26.2009 53.6068 31.759 43.833 43.8329 43.833C55.9069 43.833 61.465 53.6068 62.0456 63.9239C62.1023 64.931 61.279 65.7495 60.2703 65.7495H27.3956C26.3869 65.7495 25.5636 64.931 25.6203 63.9239Z" fill="#68C28C"/>
<circle cx="43.833" cy="29.2219" r="10.9583" fill="#68C28C"/>
</svg>
