<svg width="77" height="77" viewBox="0 0 77 77" fill="none" xmlns="http://www.w3.org/2000/svg">
<path d="M14.7227 14.5104C15.3153 12.1396 15.6117 10.9543 16.4956 10.2641C17.3795 9.57397 18.6014 9.57397 21.0451 9.57397H55.5473C57.9911 9.57397 59.213 9.57397 60.0969 10.2641C60.9808 10.9543 61.2771 12.1396 61.8698 14.5104L65.6855 29.7733C65.9756 30.9336 66.1207 31.5137 66.1005 31.9852C66.0412 33.3763 65.1045 34.576 63.7693 34.9709C63.3168 35.1048 62.7041 35.1048 61.4785 35.1048C59.8849 35.1048 59.0881 35.1048 58.4174 34.9621C56.2781 34.5069 54.5099 33.0089 53.7092 30.9736C53.4581 30.3355 53.3303 29.5685 53.0746 28.0346C53.0031 27.6054 52.9674 27.3909 52.9291 27.333C52.8003 27.1383 52.5144 27.1383 52.3856 27.333C52.3473 27.3909 52.3116 27.6054 52.24 28.0346L51.9798 29.5959C51.9699 29.6555 51.9649 29.6853 51.9603 29.7115C51.4179 32.8101 48.7396 35.0789 45.594 35.1046C45.5674 35.1048 45.5372 35.1048 45.4768 35.1048C45.4164 35.1048 45.3861 35.1048 45.3596 35.1046C42.214 35.0789 39.5357 32.8101 38.9933 29.7115C38.9887 29.6853 38.9837 29.6555 38.9738 29.5959L38.7135 28.0346C38.642 27.6054 38.6063 27.3909 38.568 27.333C38.4392 27.1383 38.1533 27.1383 38.0245 27.333C37.9862 27.3909 37.9505 27.6054 37.8789 28.0346L37.6187 29.5959C37.6088 29.6555 37.6038 29.6853 37.5992 29.7115C37.0568 32.8101 34.3785 35.0789 31.2329 35.1046C31.2064 35.1048 31.1761 35.1048 31.1157 35.1048C31.0553 35.1048 31.025 35.1048 30.9985 35.1046C27.8529 35.0789 25.1746 32.8101 24.6322 29.7115C24.6276 29.6853 24.6226 29.6555 24.6127 29.5959L24.3525 28.0346C24.2809 27.6054 24.2452 27.3909 24.2069 27.333C24.0781 27.1383 23.7922 27.1383 23.6634 27.333C23.6251 27.3909 23.5894 27.6054 23.5178 28.0346C23.2622 29.5685 23.1344 30.3355 22.8833 30.9736C22.0826 33.0089 20.3143 34.5069 18.1751 34.9621C17.5044 35.1048 16.7076 35.1048 15.114 35.1048C13.8884 35.1048 13.2757 35.1048 12.8232 34.9709C11.488 34.576 10.5513 33.3763 10.4919 31.9852C10.4718 31.5137 10.6169 30.9336 10.9069 29.7733L14.7227 14.5104Z" fill="#68C28C"/>
<path d="M38.2956 37.4968C40.236 39.0472 42.6839 39.9704 45.32 39.9919C45.3711 39.9924 45.4253 39.9929 45.4763 39.9929C45.5274 39.9929 45.5822 39.9924 45.6335 39.9919C48.2687 39.9704 50.7149 39.0472 52.655 37.4978C54.0203 38.5887 55.6384 39.368 57.4001 39.7429C58.4127 39.9584 59.5052 39.9895 60.5759 39.9929C60.6357 41.3791 60.6355 43.011 60.6355 44.948V63.6931C60.6355 66.765 60.6357 68.3012 59.6814 69.2556C58.727 70.2099 57.1908 70.2097 54.1189 70.2097H44.6794V57.5125C44.6794 55.7129 43.2202 54.2538 41.4206 54.2537H35.1726L35.0046 54.2576C33.2829 54.3449 31.9138 55.7691 31.9138 57.5125V70.2097H22.4734C19.4016 70.2097 17.8652 70.2099 16.9109 69.2556C15.9567 68.3012 15.9568 66.7649 15.9568 63.6931V44.948C15.9568 43.0109 15.9574 41.3791 16.0173 39.9929C17.0877 39.9895 18.1798 39.9583 19.1921 39.7429C20.9536 39.3681 22.571 38.5885 23.9362 37.4978C25.8764 39.0475 28.3233 39.9704 30.9587 39.9919C31.01 39.9924 31.0648 39.9929 31.1159 39.9929C31.1671 39.9929 31.2219 39.9924 31.2732 39.9919C33.9089 39.9703 36.3554 39.0469 38.2956 37.4968Z" fill="#68C28C"/>
</svg>
