<svg width="95" height="96" viewBox="0 0 95 96" fill="none" xmlns="http://www.w3.org/2000/svg">
<path d="M90.5526 50.0933V10.8193C90.372 8.86774 89.2307 6.51737 87.8561 5.14276C82.2673 -0.445959 72.5874 3.19875 71.9327 11.0074L71.9252 49.9428C61.6734 59.7959 70.8491 76.9383 84.8033 73.3538C95.1254 70.7049 98.4516 57.2473 90.5526 50.0933ZM72.156 65.7132C69.0054 60.4405 70.7688 55.07 74.9403 51.0766L74.9303 12.8084C74.3533 3.06079 88.1546 3.10845 87.5576 12.7758L87.545 19.1873C83.1202 18.5326 82.9271 22.9875 87.545 22.1974V26.7125C83.1202 26.0578 82.9271 30.5128 87.545 29.7226V34.2377C83.1152 33.5228 82.9722 38.043 87.545 37.2478V51.0766C91.2926 54.6511 93.1764 59.3092 91.0744 64.3887C87.8184 72.2576 76.5106 73.0001 72.156 65.7132Z" fill="#68C28C"/>
<path d="M11.1616 44.9587C10.2084 34.5814 20.9745 26.8079 30.2606 32.3514C30.4362 32.3439 31.0909 30.001 31.2589 29.5947C34.9036 20.8002 44.2901 16.2575 53.4934 18.9064C60.9835 21.0636 66.4242 28.1298 66.5572 35.9435C66.7829 36.2595 69.8507 36.1792 70.5179 37.0622C71.1852 37.9452 70.8089 39.1693 69.7604 39.5029L64.2996 38.7629C63.1884 38.0029 63.6951 37.2804 63.6324 36.4201C62.3004 17.5769 37.6779 16.1747 33.4538 32.5421C33.1904 33.558 33.1879 35.9936 32.2297 36.395C30.8852 36.9569 30.085 35.7277 29.0214 35.0981C21.4009 30.598 13.8958 36.267 14.1767 44.6752C14.2043 45.5055 14.7637 46.2806 14.1817 47.1334C13.5998 47.9863 12.4409 47.6477 11.6532 47.8007C-0.590273 50.1912 0.548542 67.0301 12.9526 67.9105C17.706 68.2467 22.7956 67.6296 27.5841 67.9532C29.0666 68.2918 28.6702 70.9583 27.0423 70.9056C18.15 70.3387 7.20083 73.6046 1.79271 64.3963C-2.88295 56.4346 2.0586 46.0899 11.1616 44.9612V44.9587Z" fill="#68C28C"/>
<path d="M38.443 74.3095C36.3058 73.6523 33.6921 73.3237 31.6276 72.5636C29.2045 71.6706 29.1268 69.694 30.4637 67.74C35.5683 60.285 42.6922 53.3518 47.9398 45.8968C49.4549 44.1033 52.0736 45.3174 51.592 47.6677L46.9264 65.1688C47.0593 65.6806 53.6439 66.842 54.6874 67.5619C56.6339 68.9039 55.6807 70.8554 54.6121 72.3228C49.2492 79.7025 42.7223 86.5781 37.3117 93.9653C35.7414 95.4026 33.5014 94.4244 33.7347 92.2772L38.4405 74.307L38.443 74.3095ZM52.5527 69.985C52.3245 69.6915 46.4222 68.4925 45.4013 68.0109C43.9564 67.3286 43.7708 66.1321 43.9489 64.6697C44.4004 60.9397 46.4899 55.8025 47.3904 51.932C47.4356 51.7414 47.6413 51.32 47.2901 51.3601L32.8016 69.7015C35.6587 71.1138 42.3536 70.4315 41.4054 75.1071L37.8811 88.2311L52.5527 69.985Z" fill="#68C28C"/>
<path d="M23.9143 9.83349C28.7906 9.28165 33.6995 10.8519 36.9304 14.5844C37.7933 15.5802 40.856 19.5209 38.305 20.0878C36.3534 20.5218 36.1477 18.4273 35.1318 17.1329C27.1601 6.99147 10.7903 15.7182 15.4835 28.3154C15.8874 29.4015 17.4376 31.2778 15.9375 32.1457C13.7954 33.3874 12.5437 29.3765 12.1549 27.8789C10.0603 19.8094 15.3957 10.7917 23.9117 9.83099L23.9143 9.83349Z" fill="#68C28C"/>
<path d="M48.9231 24.307C51.7551 23.6598 56.0419 26.4141 57.71 28.6089C58.5529 29.7176 60.7778 33.6734 58.2769 34.0396C56.4232 34.3105 56.4684 32.4543 55.8337 31.2377C55.0687 29.7703 53.5762 28.5011 52.0385 27.884C51.0904 27.5027 48.7876 27.287 48.3161 26.9032C47.4356 26.1908 47.7366 24.5754 48.9256 24.3045L48.9231 24.307Z" fill="#68C28C"/>
<path d="M57.3087 70.4917C56.4909 69.7968 56.8722 68.204 57.9182 67.9181C60.3012 67.8604 62.6892 67.9732 65.0697 67.9206C66.2361 67.8955 68.8373 66.9674 69.0982 68.7734C69.2838 70.0527 68.6717 70.5143 67.4928 70.7174C65.3581 71.0837 61.0361 71.1138 58.8463 70.9281C58.4174 70.893 57.6272 70.7576 57.3087 70.4867V70.4917Z" fill="#68C28C"/>
<path d="M13.2863 94.763C12.9677 94.4419 12.8172 93.7546 12.9376 93.3081C13.4092 91.5623 15.6492 89.1015 16.344 87.298C17.4828 85.961 19.5196 87.0246 18.9778 88.803C18.8373 89.2596 16.0229 94.0581 15.6467 94.5021C15.0321 95.2321 14.0287 95.5105 13.2837 94.7605L13.2863 94.763Z" fill="#68C28C"/>
<path d="M46.3971 94.763C46.0785 94.4419 45.928 93.7546 46.0484 93.3081C46.52 91.5623 48.76 89.1015 49.4548 87.298C50.5936 85.961 52.6305 87.0246 52.0887 88.803C51.9482 89.2596 49.1338 94.0581 48.7575 94.5021C48.1429 95.2321 47.1396 95.5105 46.3946 94.7605L46.3971 94.763Z" fill="#68C28C"/>
<path d="M29.355 87.155C29.4905 87.313 29.7263 87.9652 29.7338 88.1659C29.7765 89.3599 26.7162 93.283 26.222 94.6752C24.8851 95.8215 23.1894 94.8934 23.6685 93.115C23.7989 92.6334 26.493 87.9602 26.8843 87.4886C27.4938 86.7512 28.6376 86.3022 29.355 87.155Z" fill="#68C28C"/>
<path d="M62.466 87.155C62.6015 87.313 62.8372 87.9652 62.8448 88.1659C62.8874 89.3599 59.8272 93.283 59.333 94.6752C57.996 95.8215 56.3003 94.8934 56.7795 93.115C56.9099 92.6334 59.6039 87.9602 59.9952 87.4886C60.6048 86.7512 61.7486 86.3022 62.466 87.155Z" fill="#68C28C"/>
<path d="M71.5012 86.7637C72.8156 86.4702 73.7538 87.5363 73.3474 88.803C72.4619 89.9393 70.4577 94.7479 69.3039 95.1116C68.15 95.4754 67.0563 94.3968 67.3975 93.2153C67.6007 92.5155 70.2295 87.9777 70.7537 87.3381C70.9895 87.0496 71.0924 86.8565 71.5012 86.7637Z" fill="#68C28C"/>
<path d="M5.76604 87.16C6.79198 86.0463 8.66576 86.9142 8.29702 88.6576C8.19418 89.1492 5.36219 94.0858 4.95081 94.5297C3.63892 95.952 1.9031 94.8634 2.36465 93.0724L5.76353 87.16H5.76604Z" fill="#68C28C"/>
<path d="M16.3791 76.2284C17.7236 75.9349 18.5815 76.9659 18.2253 78.2677C18.1425 78.5713 15.8348 82.5295 15.594 82.7854C14.4351 84.0145 12.5387 83.1215 12.9376 81.4584C13.0179 81.1198 15.298 77.1189 15.5915 76.7627C15.8022 76.5093 16.048 76.3012 16.3791 76.2284Z" fill="#68C28C"/>
<path d="M27.1026 76.2259C28.0256 76.0227 28.8484 76.5119 29.0039 77.46C29.177 78.5286 26.6611 81.6817 26.2171 82.8707C24.9177 84.0095 23.1894 83.0011 23.666 81.2628C23.7664 80.8991 25.8132 77.3672 26.1293 76.9533C26.3651 76.6448 26.7138 76.3112 27.1026 76.2259Z" fill="#68C28C"/>
<path d="M60.2134 76.2259C61.1365 76.0227 61.9592 76.5119 62.1148 77.46C62.2878 78.5286 59.7719 81.6817 59.3279 82.8707C58.0286 84.0095 56.3003 83.0011 56.7769 81.2628C56.8772 80.8991 58.9241 77.3672 59.2401 76.9533C59.4759 76.6448 59.8246 76.3112 60.2134 76.2259Z" fill="#68C28C"/>
<path d="M70.7462 76.231C72.171 75.8999 72.9461 76.9058 72.5924 78.2653C72.462 78.762 70.3424 82.3841 69.9561 82.7754C68.905 83.839 67.3549 83.39 67.2821 81.8975C67.262 81.4836 69.5873 77.3046 70.0012 76.8004C70.2395 76.5069 70.3298 76.3263 70.7462 76.2285V76.231Z" fill="#68C28C"/>
<path d="M7.34384 76.6197C7.73264 77.0763 7.7201 77.756 7.53448 78.2928C7.32378 78.9024 5.43495 82.211 5.01855 82.7252C3.9274 84.0697 1.98088 83.2244 2.36466 81.4083C2.47503 80.884 4.10298 78.1022 4.49931 77.5253C5.13645 76.5946 6.26272 75.3555 7.34384 76.6222V76.6197Z" fill="#68C28C"/>
<path d="M37.0759 3.04071C38.3602 2.77482 39.045 3.96881 38.7791 5.13271C38.7315 5.34091 36.8251 8.63695 36.6445 8.8301C35.6963 9.85353 34.0157 9.23646 33.9329 7.98226C33.8802 7.20215 36.1754 3.22633 37.0759 3.04071Z" fill="#68C28C"/>
<path d="M14.5003 3.04081C15.0822 2.9204 15.451 3.08345 15.8674 3.47978C16.0781 3.68296 17.9493 6.85107 18.0397 7.13954C18.594 8.9506 16.8181 10.117 15.5739 8.85528C15.165 8.4414 13.206 4.90455 13.2361 4.43548C13.2687 3.89617 13.976 3.15118 14.5028 3.04331L14.5003 3.04081Z" fill="#68C28C"/>
<path d="M5.38982 13.862C4.40653 12.7859 5.39734 11.1555 6.72429 11.2884C7.09804 11.326 10.3314 13.2149 10.6926 13.546C11.9719 14.7274 11.2043 16.3729 9.58387 16.1723C9.16246 16.1196 5.67829 14.1756 5.39233 13.862H5.38982Z" fill="#68C28C"/>
<path d="M45.3562 11.321C46.6906 11.0577 47.5636 12.5201 46.9189 13.6488C46.7333 13.9724 43.5652 15.8763 43.0986 16.0343C41.3477 16.6188 40.1688 15.0034 41.1822 13.7442C41.413 13.4557 44.9699 11.3988 45.3587 11.3236L45.3562 11.321Z" fill="#68C28C"/>
<path d="M3.20741 22.6138C3.81946 22.4758 7.21834 22.4859 7.78775 22.6589C9.205 23.0904 8.97422 25.3329 7.67989 25.5812C7.0854 25.6941 3.40557 25.664 2.8763 25.501C1.51173 25.077 1.78012 22.9349 3.20741 22.6163V22.6138Z" fill="#68C28C"/>
<path d="M10.9233 32.4092C11.5328 33.0187 11.3924 34.1274 10.7778 34.6968C10.4793 34.9753 7.2535 36.7587 6.88728 36.8315C5.19661 37.1676 4.29108 35.3891 5.72338 34.1575C6.03442 33.8916 9.14985 32.0655 9.42076 32.0103C9.84217 31.9225 10.6273 32.1107 10.9233 32.4067V32.4092Z" fill="#68C28C"/>
<path d="M25.7881 0.0306823C26.4177 -0.0997546 27.1301 0.19122 27.3909 0.798254C27.5941 1.27234 27.6493 5.35351 27.4938 5.88529C27.115 7.18966 24.7596 7.27495 24.5238 5.1704C24.3733 3.83091 24.12 0.374334 25.7906 0.0306823H25.7881Z" fill="#68C28C"/>
</svg>
